<?xml version="1.0" encoding="utf-8"?>
<svg version="1.1" id="Layer_1" x="0px" y="0px" viewBox="0 0 512 512" style="enable-background:new 0 0 512 512;" xmlns="http://www.w3.org/2000/svg">
  <style type="text/css">
	.st0{fill:#231F20;}
	.st1{fill:#FDB803;}
</style>
  <g>
    <path class="st0" d="M199.7,296.8h51c11.1,0,20.1,9,20.1,20.1s-9,20.1-20.1,20.1h-51c-11.1,0-20.1-9-20.1-20.1 S188.6,296.8,199.7,296.8z" style="fill: rgb(229, 0, 102);"/>
  </g>
  <g>
    <path class="st0" d="M199.7,170.8h51c11.1,0,20.1,9,20.1,20.1s-9,20.1-20.1,20.1h-51c-11.1,0-20.1-9-20.1-20.1 S188.6,170.8,199.7,170.8z" style="fill: rgb(229, 0, 102);"/>
  </g>
  <g>
    <path class="st0" d="M134.9,68.3h119.3c16.8,0,30.4,13.9,30.4,31v325.3c0,17.1-13.7,31-30.4,31H134.9c-11.1,0-20.1-9-20.1-20.1 c0-11.1,9-20.1,20.1-20.1h109.6V108.5H134.9c-11.1,0-20.1-9-20.1-20.1S123.8,68.3,134.9,68.3z" style="fill: rgb(229, 0, 102);"/>
  </g>
  <g>
    <path class="st1" d="M384.4,316.9c-4.6,0-9.2-1.6-13-4.8l-56.5-47.9c-5-4.3-7.9-10.5-7.9-17.1c0-6.6,2.9-12.8,7.9-17.1l56.5-47.9 c8.5-7.2,21.1-6.1,28.3,2.3c7.2,8.5,6.1,21.1-2.3,28.3l-40.6,34.4l40.6,34.4c8.5,7.2,9.5,19.8,2.3,28.3 C395.8,314.4,390.1,316.9,384.4,316.9z" style="fill: rgb(51, 255, 0);"/>
  </g>
</svg>