<?xml version="1.0" encoding="utf-8"?>
<svg version="1.1" id="Layer_1" x="0px" y="0px" viewBox="0 0 512 512" style="enable-background:new 0 0 512 512;" xmlns="http://www.w3.org/2000/svg">
  <style type="text/css">
	.st0{fill:#212121;}
	.st1{fill:#FDB803;}
</style>
  <g>
    <path class="st0" d="M180.1,165.3c-8.9,0-16.1,7.2-16.1,16.1v85.1l-33.9-33.9c-3.2-3.2-7.3-4.7-11.4-4.7c-4.2,0-8.3,1.6-11.4,4.7 c-6.3,6.3-6.3,16.5,0,22.8l63.2,63.2c4.9,4.9,12.8,4.9,17.7,0l63.2-63.2c6.3-6.3,6.3-16.5,0-22.8c-6.3-6.3-16.5-6.3-22.8,0 l-32.2,32.2v-83.4C196.3,172.6,189.1,165.3,180.1,165.3z" style="fill: rgb(229, 0, 102);"/>
    <path class="st0" d="M196.3,264.8v-83.4c0-8.9-7.2-16.1-16.1-16.1c-8.9,0-16.1,7.2-16.1,16.1v85.1" style="fill: rgb(229, 0, 102);"/>
    <path class="st0" d="M331.9,256c8.9,0,16.1-7.2,16.1-16.1v-85.1l33.9,33.9c3.2,3.2,7.3,4.7,11.4,4.7c4.2,0,8.3-1.6,11.4-4.7 c6.3-6.3,6.3-16.5,0-22.8l-63.2-63.2c-4.9-4.9-12.8-4.9-17.7,0l-63.2,63.2c-6.3,6.3-6.3,16.5,0,22.8c6.3,6.3,16.5,6.3,22.8,0 l32.2-32.2v83.4C315.7,248.8,322.9,256,331.9,256z" style="fill: rgb(229, 0, 102);"/>
    <path class="st0" d="M315.7,156.5v83.4c0,8.9,7.2,16.1,16.1,16.1c8.9,0,16.1-7.2,16.1-16.1v-85.1" style="fill: rgb(229, 0, 102);"/>
  </g>
  <g>
    <rect x="255.9" y="370.4" class="st1" width="213" height="89.8" style="fill: rgb(51, 255, 0);"/>
    <path class="st0" d="M28,370v94.4c0,9.9,8,17.9,17.9,17.9h420.1c9.9,0,17.9-8,17.9-17.9V370c0-9.9-8-17.9-17.9-17.9H45.9 C36,352.1,28,360.1,28,370z M430.9,446H283.6c-9.9,0-17.9-8-17.9-17.9v-21.9c0-9.9,8-17.9,17.9-17.9h147.3c9.9,0,17.9,8,17.9,17.9 v21.9C448.7,438,440.7,446,430.9,446z" style="fill: rgb(229, 0, 102);"/>
  </g>
</svg>